<svg xmlns="http://www.w3.org/2000/svg" xmlns:xlink="http://www.w3.org/1999/xlink" width="500" zoomAndPan="magnify" viewBox="0 0 375 374.999991" height="500" preserveAspectRatio="xMidYMid meet" version="1.2"><defs><clipPath id="29dfd7a0ec"><path d="M 187.5 0 C 83.945312 0 0 83.945312 0 187.5 C 0 291.054688 83.945312 375 187.5 375 C 291.054688 375 375 291.054688 375 187.5 C 375 83.945312 291.054688 0 187.5 0 Z M 187.5 0 "/></clipPath><clipPath id="00286a4ab1"><path d="M 62.636719 62.636719 L 312.636719 62.636719 L 312.636719 312.636719 L 62.636719 312.636719 Z M 62.636719 62.636719 "/></clipPath></defs><g id="fc97408757"><g clip-rule="nonzero" clip-path="url(#29dfd7a0ec)"><rect x="0" width="375" y="0" height="374.999991" style="fill:#3b82f6;fill-opacity:1;stroke:none;"/></g><g clip-rule="nonzero" clip-path="url(#00286a4ab1)"><path style=" stroke:none;fill-rule:nonzero;fill:#ffffff;fill-opacity:1;" d="M 187.5 238.996094 C 159.054688 238.996094 136 215.941406 136 187.5 C 136 159.054688 159.054688 136 187.5 136 C 215.941406 136 238.996094 159.054688 238.996094 187.5 C 238.996094 215.941406 215.941406 238.996094 187.5 238.996094 Z M 305.621094 163.421875 L 282.5625 160.691406 C 280.480469 153.285156 277.527344 146.074219 273.683594 139.222656 L 288.046875 121 C 290.445312 117.957031 290.1875 113.605469 287.449219 110.871094 L 264.128906 87.546875 C 261.390625 84.808594 257.039062 84.550781 253.996094 86.949219 L 235.773438 101.3125 C 228.921875 97.472656 221.710938 94.515625 214.304688 92.433594 L 211.578125 69.375 C 211.121094 65.53125 207.863281 62.636719 203.988281 62.636719 L 171.007812 62.636719 C 167.136719 62.636719 163.875 65.53125 163.421875 69.375 L 160.691406 92.433594 C 153.285156 94.515625 146.074219 97.472656 139.222656 101.3125 L 120.996094 86.949219 C 117.957031 84.550781 113.605469 84.808594 110.867188 87.546875 L 87.546875 110.871094 C 84.808594 113.605469 84.550781 117.957031 86.949219 121 L 101.3125 139.222656 C 97.472656 146.074219 94.511719 153.285156 92.433594 160.691406 L 69.375 163.421875 C 65.53125 163.875 62.636719 167.136719 62.636719 171.007812 L 62.636719 203.988281 C 62.636719 207.863281 65.53125 211.121094 69.375 211.578125 L 92.433594 214.304688 C 94.511719 221.710938 97.472656 228.921875 101.3125 235.773438 L 86.949219 253.996094 C 84.550781 257.039062 84.808594 261.390625 87.546875 264.128906 L 110.867188 287.449219 C 113.605469 290.1875 117.957031 290.445312 120.996094 288.046875 L 139.222656 273.683594 C 146.074219 277.527344 153.285156 280.480469 160.691406 282.5625 L 163.421875 305.621094 C 163.875 309.464844 167.136719 312.363281 171.007812 312.363281 L 203.445312 312.363281 C 207.246094 312.363281 210.46875 309.5625 211.007812 305.796875 L 214.304688 282.5625 C 221.710938 280.480469 228.921875 277.527344 235.773438 273.683594 L 253.996094 288.046875 C 257.039062 290.445312 261.390625 290.1875 264.128906 287.449219 L 287.449219 264.128906 C 290.1875 261.390625 290.445312 257.039062 288.046875 253.996094 L 273.683594 235.773438 C 277.527344 228.921875 280.480469 221.710938 282.5625 214.304688 L 305.621094 211.578125 C 309.464844 211.121094 312.363281 207.863281 312.363281 203.988281 L 312.363281 171.007812 C 312.363281 167.136719 309.464844 163.875 305.621094 163.421875 "/></g></g></svg>